<svg xmlns="http://www.w3.org/2000/svg" width="120" height="120" viewBox="0 0 120 120"><defs><style>.a{fill:#c3dafd;}.b{fill:#a1b8d8;}.c{fill:#e4f3ff;}.d{fill:#9fe04d;}.e{fill:#72c976;}.f{fill:#77b0fb;}.g{fill:#5a9ffb;}.h{fill:#ecc443;}.i{fill:#e39069;}.j{fill:#dc4c69;}.k{fill:#c21d75;}</style></defs><path class="a" d="M24.609,26.953H0V12.3a12.3,12.3,0,0,1,24.609,0Z" transform="translate(0 0)"/><path class="b" d="M419.3,423.953a12.319,12.319,0,0,1-12.3-12.3V397h24.609v14.648A12.319,12.319,0,0,1,419.3,423.953Z" transform="translate(-311.609 -303.953)"/><g transform="translate(12.348 0)"><path class="c" d="M139.242,110.078V17.4A17.424,17.424,0,0,0,121.838,0H52.684c4.621,0,8.746,5.906,8.746,10.058V102.6a17.424,17.424,0,0,0,17.4,17.4H147.8c-5.315,0-8.554-5.854-8.554-9.922Z" transform="translate(-52.684 0)"/></g><path class="d" d="M30,317v31.178L44.063,338.8l14.063,9.375V317Z" transform="translate(-22.969 -242.704)"/><path class="e" d="M90,317v21.8l14.063,9.375V317Z" transform="translate(-68.906 -242.704)"/><g transform="translate(68.555 0)"><path class="a" d="M331.406,120c-5.315,0-8.554-5.854-8.554-9.922V17.4A17.424,17.424,0,0,0,305.448,0H292.5V120Z" transform="translate(-292.5 0)"/></g><g transform="translate(52.734 21.094)"><path class="f" d="M225,90h31.641v7.031H225Z" transform="translate(-225 -90)"/><path class="f" d="M225,167h31.641v7.031H225Z" transform="translate(-225 -148.953)"/><path class="f" d="M225,242h31.641v7.031H225Z" transform="translate(-225 -206.375)"/><path class="f" d="M225,317h31.641v7.031H225Z" transform="translate(-225 -263.797)"/><path class="f" d="M225,392h31.641v7.031H225Z" transform="translate(-225 -321.219)"/></g><path class="g" d="M292.5,90h15.82v7.031H292.5Z" transform="translate(-223.945 -68.906)"/><path class="g" d="M292.5,167h15.82v7.031H292.5Z" transform="translate(-223.945 -127.859)"/><path class="g" d="M292.5,242h15.82v7.031H292.5Z" transform="translate(-223.945 -185.281)"/><path class="g" d="M292.5,317h15.82v7.031H292.5Z" transform="translate(-223.945 -242.703)"/><path class="g" d="M292.5,392h15.82v7.031H292.5Z" transform="translate(-223.945 -300.125)"/><circle class="h" cx="21" cy="21" r="21" transform="translate(0 39)"/><g transform="translate(21.094 39.141)"><path class="i" d="M90,167v42.188A21.094,21.094,0,0,0,90,167Z" transform="translate(-90 -167)"/></g><circle class="j" cx="14" cy="14" r="14" transform="translate(7 46)"/><g transform="translate(21.094 46.172)"><path class="k" d="M90,197v28.125A14.063,14.063,0,0,0,90,197Z" transform="translate(-90 -197)"/></g></svg>