<svg xmlns="http://www.w3.org/2000/svg" width="120" height="120" viewBox="0 0 120 120"><defs><style>.a{fill:#7ed8f6;}.b{fill:#6aa9ff;}.c{fill:#fabe2c;}.d{fill:#ff9100;}.e{fill:#4a696f;}.f{fill:#293338;}</style></defs><path class="a" d="M211.875,166.7a45.938,45.938,0,1,0-45.938,45.938h45.938l-12.423-14.446A46.076,46.076,0,0,0,211.875,166.7Z" transform="translate(-91.875 -92.641)"/><path class="b" d="M349.515,198.194A45.823,45.823,0,0,0,316,121v91.641h45.938Z" transform="translate(-241.937 -92.641)"/><path class="c" d="M31.641,0A31.758,31.758,0,1,0,63.281,31.875,31.877,31.877,0,0,0,31.641,0Z"/><path class="d" d="M166.641,31.875A31.877,31.877,0,0,0,135,0V63.516A31.675,31.675,0,0,0,166.641,31.875Z" transform="translate(-103.359)"/><path class="e" d="M96.5,87.895l-9.819,9.819L83.17,101.23l-6.3-6.3L71.895,99.9,83.17,111.172l3.516-3.516,14.79-14.79Z" transform="translate(-55.045 -67.295)"/><path class="f" d="M144.819,87.895,135,97.714v9.943l14.79-14.79Z" transform="translate(-103.359 -67.295)"/></svg>