<svg xmlns="http://www.w3.org/2000/svg" width="35.972" height="35.972" viewBox="0 0 35.972 35.972"><defs><style>.a{fill:#fc5b94;}.b{fill:#fc3e81;}.c{fill:#fff;}.d{fill:#deecf1;}.e{fill:#cfdde2;}</style></defs><path class="a" d="M0,7.447V28.524a7.447,7.447,0,0,0,7.447,7.447H28.524a7.447,7.447,0,0,0,7.447-7.447V7.447A7.447,7.447,0,0,0,28.524,0H7.447A7.447,7.447,0,0,0,0,7.447Zm0,0"/><path class="b" d="M266.524,0H256V35.972h10.524a7.442,7.442,0,0,0,7.437-7.447V7.447A7.442,7.442,0,0,0,266.524,0Zm0,0" transform="translate(-237.989)"/><path class="c" d="M112.474,123.33a10.857,10.857,0,1,1,10.857-10.857A10.869,10.869,0,0,1,112.474,123.33Zm0-19.6a8.747,8.747,0,1,0,8.747,8.747A8.757,8.757,0,0,0,112.474,103.727Zm0,0" transform="translate(-94.488 -94.488)"/><path class="d" d="M415.364,71.919a1.395,1.395,0,1,1,1.211-.7A1.389,1.389,0,0,1,415.364,71.919Zm0,0" transform="translate(-384.876 -64.278)"/><g transform="translate(18.011 4.85)"><path class="e" d="M415.364,71.919a1.395,1.395,0,1,1,1.211-.7A1.389,1.389,0,0,1,415.364,71.919Zm0,0" transform="translate(-402.888 -69.128)"/><path class="e" d="M256,101.617v2.1a8.726,8.726,0,1,1,0,17.453v2.1a10.831,10.831,0,1,0,0-21.662Zm0,0" transform="translate(-256 -99.338)"/></g></svg>