<svg xmlns="http://www.w3.org/2000/svg" width="93.384" height="120" viewBox="0 0 93.384 120"><defs><style>.a{fill:#fabe2c;}.b{fill:#ff9100;}.c{fill:#ffe1ba;}.d{fill:#ffbfab;}.e{fill:#76e2f8;}.f{fill:#00c8c8;}.g{fill:#596c76;}.h{fill:#3b4a51;}.i{fill:#fff7cc;}.j{fill:#ffe6b3;}</style></defs><g transform="translate(-56.781)"><path class="a" d="M175.609,0A24.841,24.841,0,0,0,151,24.844v7.031h49.219V24.844A24.841,24.841,0,0,0,175.609,0Z" transform="translate(-72.136)"/><path class="b" d="M280.609,24.844A24.841,24.841,0,0,0,256,0V31.875h24.609Z" transform="translate(-152.527)"/><path class="c" d="M177.25,101.476h-7.031A17.686,17.686,0,0,1,157,95.5a18.537,18.537,0,0,1-13.148,5.977h-15.82a7.031,7.031,0,0,0,0,14.063h3.661c.093,17.936,13.214,22.567,13.917,23.267v11.889h14.063V138.809c.71-.7,13.9-5.315,13.939-23.27h3.639a7.031,7.031,0,1,0,0-14.062Z" transform="translate(-49.168 -73.116)"/><path class="d" d="M263.031,138.809c.71-.7,13.9-5.315,13.939-23.27h3.639a7.031,7.031,0,0,0,0-14.062h-7.031A17.686,17.686,0,0,1,260.359,95.5,17.219,17.219,0,0,1,256,98.992v51.7h7.031Z" transform="translate(-152.527 -73.116)"/><path class="e" d="M150.766,301H108.578A17.578,17.578,0,0,0,91,318.578v3.516h77.344v-3.516A17.578,17.578,0,0,0,150.766,301Z" transform="translate(-26.199 -230.453)"/><path class="f" d="M294.672,318.578A17.578,17.578,0,0,0,277.094,301H256v21.094h38.672Z" transform="translate(-152.527 -230.453)"/><path class="g" d="M103.473,361H56.781l8.789,35.391h75.806L150.165,361Z" transform="translate(0 -276.391)"/><path class="h" d="M302.692,361H256v35.391h37.9Z" transform="translate(-152.527 -276.391)"/><path class="i" d="M244.516,421H241v7.031h7.031V421Z" transform="translate(-141.043 -322.328)"/><path class="j" d="M256,421h3.516v7.031H256Z" transform="translate(-152.527 -322.328)"/></g></svg>