<svg xmlns="http://www.w3.org/2000/svg" width="41.14" height="28.597" viewBox="0 0 41.14 28.597"><defs><style>.a{fill:#d6620f;}.b{fill:#c55200;}.c{fill:#deecf1;}.d{fill:#cfdde2;}</style></defs><path class="a" d="M0,6.589V22.008A6.589,6.589,0,0,0,6.589,28.6H34.551a6.589,6.589,0,0,0,6.589-6.589V6.589A6.589,6.589,0,0,0,34.551,0H6.589A6.589,6.589,0,0,0,0,6.589Zm0,0" transform="translate(0 0)"/><path class="b" d="M269.247,0H256V28.6h13.247a6.423,6.423,0,0,0,6.243-6.589V6.589A6.423,6.423,0,0,0,269.247,0Zm0,0" transform="translate(-234.349)"/><path class="c" d="M199.305,98.754v-16l10.988,8Zm0,0" transform="translate(-182.96 -76.458)"/><path class="d" d="M256,120.148v8.8l6.672-4.4Zm0,0" transform="translate(-235.207 -110.25)"/></svg>