<svg xmlns="http://www.w3.org/2000/svg" width="45.107" height="24" viewBox="0 0 45.107 24"><defs><style>.a{fill:#0960a9;}.b{fill:#064880;}</style></defs><g transform="translate(0)"><path class="a" d="M36.112,13.559,45.08,0H31.326L31.07.995c-.659,2.554-1.9,6.016-4.045,8a6.534,6.534,0,0,1-.749.6V0H14.3V2.652h1.119v6.01a11.159,11.159,0,0,1-3.472-7.48L11.815,0H0L.406,1.644a37.849,37.849,0,0,0,6.5,14.393,20.817,20.817,0,0,0,8.258,6.484A18.689,18.689,0,0,0,22.429,24a13.825,13.825,0,0,0,2.9-.268l1.01-.235.052-3.643,4.5,3.913H45.107Zm0,0" transform="translate(0)"/><path class="b" d="M260.85,13.559,269.754,0H256.1l-.255.995c-.654,2.554-1.882,6.016-4.016,8a6.5,6.5,0,0,1-.743.6V0h-4.521V23.986q.365.014.7.014a13.632,13.632,0,0,0,2.882-.268l1-.235.052-3.643,4.466,3.913h14.114Zm0,0" transform="translate(-224.674)"/></g></svg>