<svg xmlns="http://www.w3.org/2000/svg" width="116.266" height="116.266" viewBox="0 0 116.266 116.266"><defs><style>.a{fill:#003480;}.b{fill:#001739;}.c{fill:#edf5ff;}.d{fill:#d6e8fd;}.e{fill:#0960a9;}.f{fill:#fee362;}.g{fill:#e23e95;}.h{fill:#bb266d;}.i{fill:#2a3860;}.j{fill:#ffcb00;}</style></defs><path class="a" d="M185.041,392.656H126V389.25a10.23,10.23,0,0,0,10.219-10.219V362h38.6v17.031a10.23,10.23,0,0,0,10.219,10.219Zm0,0" transform="translate(-97.388 -279.796)"/><path class="b" d="M275.3,379.031V362H256v30.656h29.521V389.25A10.23,10.23,0,0,1,275.3,379.031Zm0,0" transform="translate(-197.867 -279.796)"/><path class="c" d="M116.266,89.016H0V0H116.266Zm0,0"/><path class="d" d="M314.133,89.016H256V0h58.133Zm0,0" transform="translate(-197.867)"/><path class="e" d="M116.266,300.8H0V274H116.266Zm0,0" transform="translate(0 -211.779)"/><path class="e" d="M110,482h66.308v6.812H110Zm0,0" transform="translate(-85.021 -372.546)"/><path class="f" d="M247.812,425.406A3.406,3.406,0,1,1,244.406,422,3.406,3.406,0,0,1,247.812,425.406Zm0,0" transform="translate(-186.273 -326.171)"/><path class="a" d="M70,204h84.475v6.812H70Zm0,0" transform="translate(-54.104 -157.675)"/><path class="f" d="M147,184h6.812v15.9H147Zm0,0" transform="translate(-113.619 -142.217)"/><path class="g" d="M232,86v17.258l15.442-8.629Zm0,0" transform="translate(-179.317 -66.471)"/><path class="h" d="M256,110.578l9.992-5.584L256,99.41Zm0,0" transform="translate(-197.867 -76.836)"/><path class="b" d="M256,204h42.237v6.812H256Zm0,0" transform="translate(-197.867 -157.675)"/><path class="i" d="M314.133,300.8H256V274h58.133Zm0,0" transform="translate(-197.867 -211.779)"/><path class="a" d="M256,482h33.154v6.812H256Zm0,0" transform="translate(-197.867 -372.546)"/><path class="j" d="M259.406,425.406A3.406,3.406,0,0,0,256,422v6.812A3.406,3.406,0,0,0,259.406,425.406Zm0,0" transform="translate(-197.867 -326.171)"/></svg>